<svg width="28" height="28" viewBox="0 0 28 28" fill="none" xmlns="http://www.w3.org/2000/svg">
<path d="M1.63362 17.9439C-0.544539 15.7657 -0.54454 12.2343 1.63362 10.0561L10.0561 1.63362C12.2343 -0.544539 15.7657 -0.54454 17.9439 1.63362L26.3664 10.0561C28.5445 12.2343 28.5445 15.7657 26.3664 17.9439L17.9439 26.3664C15.7657 28.5445 12.2343 28.5445 10.0561 26.3664L1.63362 17.9439Z" fill="#FD0404"/>
<path d="M19.1673 9.09279C17.7861 7.71898 15.9613 7 14.1366 7C12.3118 7 10.487 7.71898 9.10587 9.09279C6.29804 11.8861 6.29804 16.3087 9.10587 19.102C10.4955 20.4842 12.3118 21.2032 14.1366 21.2032C15.9613 21.2032 17.7777 20.4842 19.1673 19.102C21.9751 16.3087 21.9751 11.8861 19.1673 9.09279ZM10.2861 10.267C11.3492 9.21773 12.7387 8.64872 14.1366 8.64872C15.2332 8.64872 16.338 9.00957 17.2923 9.68412L14.1366 12.8234L9.70018 17.2367C8.12901 15.0282 8.35928 12.1923 10.2861 10.267ZM17.9869 17.9279C16.9239 18.9771 15.5344 19.5461 14.1366 19.5461C13.04 19.5461 11.9352 19.1853 10.9808 18.5107L18.573 10.9581C20.144 13.1665 19.9139 16.0025 17.9869 17.9279Z" fill="white"/>
</svg>
