<svg width="28" height="28" viewBox="0 0 28 28" fill="none" xmlns="http://www.w3.org/2000/svg">
<path d="M1.63362 17.9439C-0.544539 15.7657 -0.54454 12.2343 1.63362 10.0561L10.0561 1.63362C12.2343 -0.544539 15.7657 -0.54454 17.9439 1.63362L26.3664 10.0561C28.5445 12.2343 28.5445 15.7657 26.3664 17.9439L17.9439 26.3664C15.7657 28.5445 12.2343 28.5445 10.0561 26.3664L1.63362 17.9439Z" fill="#EDCD27"/>
<path d="M10.9762 20.2154L11.2143 20.1492C11.4433 20.0855 11.5771 19.8492 11.5131 19.6213L8.79071 9.92945C8.7523 9.79267 8.66084 9.67668 8.53645 9.60699C8.41206 9.5373 8.26494 9.51962 8.12745 9.55785L8.0967 9.56639C7.81038 9.64597 7.64312 9.94139 7.72312 10.2262L10.4456 19.9181C10.5096 20.1459 10.7472 20.279 10.9762 20.2154Z" fill="white"/>
<path d="M20.5632 13.4427C19.6999 13.0144 18.9012 12.4678 18.1905 11.8188C18.1308 11.7644 18.1074 11.6809 18.1303 11.6036C18.4824 10.2784 18.7439 8.93096 18.913 7.57058C18.9398 7.3443 18.8171 7.27775 18.6878 7.43304C16.1501 10.4523 11.7593 6.88066 9.14575 9.62481C9.17713 9.68325 9.20181 9.74501 9.21934 9.80893L10.9855 16.1003C13.6035 13.3894 17.9787 16.9388 20.5119 13.9263C20.6412 13.771 20.6658 13.487 20.5632 13.4427Z" fill="white"/>
</svg>
